<mxfile host="app.diagrams.net" modified="2023-04-18T16:53:22.481Z" agent="Mozilla/5.0 (Windows NT 10.0; Win64; x64) AppleWebKit/537.36 (KHTML, like Gecko) Chrome/112.0.0.0 Safari/537.36" etag="52lp9MSoGbb34hn-hsTT" version="21.1.8" type="github">
  <diagram name="第 1 页" id="MOk9bZ4eV60mkrr4OqWa">
    <mxGraphModel dx="1434" dy="764" grid="1" gridSize="10" guides="1" tooltips="1" connect="1" arrows="1" fold="1" page="1" pageScale="1" pageWidth="827" pageHeight="1169" math="0" shadow="0">
      <root>
        <mxCell id="0" />
        <mxCell id="1" parent="0" />
        <mxCell id="Hvkr-rmVp1VkrezowsIa-3" value="" style="rounded=0;whiteSpace=wrap;html=1;fillColor=#dae8fc;strokeColor=#6c8ebf;" parent="1" vertex="1">
          <mxGeometry x="160" y="230" width="410" height="190" as="geometry" />
        </mxCell>
        <mxCell id="Hvkr-rmVp1VkrezowsIa-4" value="延迟队列（redis list）" style="text;html=1;strokeColor=none;fillColor=none;align=center;verticalAlign=middle;whiteSpace=wrap;rounded=0;" parent="1" vertex="1">
          <mxGeometry x="170" y="240" width="80" height="30" as="geometry" />
        </mxCell>
        <mxCell id="Hvkr-rmVp1VkrezowsIa-5" value="15 分钟前" style="shape=cylinder3;whiteSpace=wrap;html=1;boundedLbl=1;backgroundOutline=1;size=15;" parent="1" vertex="1">
          <mxGeometry x="210" y="290" width="60" height="80" as="geometry" />
        </mxCell>
        <mxCell id="Hvkr-rmVp1VkrezowsIa-6" value="10 分钟前" style="shape=cylinder3;whiteSpace=wrap;html=1;boundedLbl=1;backgroundOutline=1;size=15;" parent="1" vertex="1">
          <mxGeometry x="330" y="290" width="60" height="80" as="geometry" />
        </mxCell>
        <mxCell id="Hvkr-rmVp1VkrezowsIa-7" value="5 分钟前" style="shape=cylinder3;whiteSpace=wrap;html=1;boundedLbl=1;backgroundOutline=1;size=15;" parent="1" vertex="1">
          <mxGeometry x="450" y="290" width="60" height="80" as="geometry" />
        </mxCell>
        <mxCell id="Hvkr-rmVp1VkrezowsIa-8" style="edgeStyle=orthogonalEdgeStyle;rounded=0;orthogonalLoop=1;jettySize=auto;html=1;exitX=0.5;exitY=1;exitDx=0;exitDy=0;" parent="1" source="Hvkr-rmVp1VkrezowsIa-3" target="Hvkr-rmVp1VkrezowsIa-3" edge="1">
          <mxGeometry relative="1" as="geometry" />
        </mxCell>
        <mxCell id="Hvkr-rmVp1VkrezowsIa-9" value="getUpdateIds" style="rounded=0;whiteSpace=wrap;html=1;" parent="1" vertex="1">
          <mxGeometry x="310" y="470" width="120" height="60" as="geometry" />
        </mxCell>
        <mxCell id="Hvkr-rmVp1VkrezowsIa-10" value="Cache" style="rounded=0;whiteSpace=wrap;html=1;" parent="1" vertex="1">
          <mxGeometry x="70" y="470" width="120" height="60" as="geometry" />
        </mxCell>
        <mxCell id="Hvkr-rmVp1VkrezowsIa-11" value="Rpc" style="rounded=0;whiteSpace=wrap;html=1;" parent="1" vertex="1">
          <mxGeometry x="540" y="470" width="120" height="60" as="geometry" />
        </mxCell>
        <mxCell id="Hvkr-rmVp1VkrezowsIa-12" value="" style="endArrow=classic;html=1;rounded=0;exitX=0;exitY=0.5;exitDx=0;exitDy=0;entryX=1;entryY=0.5;entryDx=0;entryDy=0;" parent="1" source="Hvkr-rmVp1VkrezowsIa-9" target="Hvkr-rmVp1VkrezowsIa-10" edge="1">
          <mxGeometry width="50" height="50" relative="1" as="geometry">
            <mxPoint x="390" y="600" as="sourcePoint" />
            <mxPoint x="440" y="550" as="targetPoint" />
          </mxGeometry>
        </mxCell>
        <mxCell id="Hvkr-rmVp1VkrezowsIa-22" value="获取缓存" style="edgeLabel;html=1;align=center;verticalAlign=middle;resizable=0;points=[];" parent="Hvkr-rmVp1VkrezowsIa-12" vertex="1" connectable="0">
          <mxGeometry x="-0.15" y="-1" relative="1" as="geometry">
            <mxPoint as="offset" />
          </mxGeometry>
        </mxCell>
        <mxCell id="Hvkr-rmVp1VkrezowsIa-14" value="" style="endArrow=classic;html=1;rounded=0;exitX=1;exitY=0.5;exitDx=0;exitDy=0;entryX=0;entryY=0.5;entryDx=0;entryDy=0;" parent="1" source="Hvkr-rmVp1VkrezowsIa-9" target="Hvkr-rmVp1VkrezowsIa-11" edge="1">
          <mxGeometry width="50" height="50" relative="1" as="geometry">
            <mxPoint x="390" y="600" as="sourcePoint" />
            <mxPoint x="440" y="550" as="targetPoint" />
          </mxGeometry>
        </mxCell>
        <mxCell id="Hvkr-rmVp1VkrezowsIa-23" value="获取实时数据" style="edgeLabel;html=1;align=center;verticalAlign=middle;resizable=0;points=[];" parent="Hvkr-rmVp1VkrezowsIa-14" vertex="1" connectable="0">
          <mxGeometry x="-0.2364" relative="1" as="geometry">
            <mxPoint y="1" as="offset" />
          </mxGeometry>
        </mxCell>
        <mxCell id="Hvkr-rmVp1VkrezowsIa-16" value="" style="endArrow=classic;html=1;rounded=0;entryX=0.5;entryY=0;entryDx=0;entryDy=0;" parent="1" target="Hvkr-rmVp1VkrezowsIa-9" edge="1">
          <mxGeometry width="50" height="50" relative="1" as="geometry">
            <mxPoint x="370" y="420" as="sourcePoint" />
            <mxPoint x="440" y="550" as="targetPoint" />
          </mxGeometry>
        </mxCell>
        <mxCell id="Hvkr-rmVp1VkrezowsIa-18" value="check" style="rounded=0;whiteSpace=wrap;html=1;" parent="1" vertex="1">
          <mxGeometry x="310" y="600" width="120" height="60" as="geometry" />
        </mxCell>
        <mxCell id="Hvkr-rmVp1VkrezowsIa-20" value="" style="endArrow=classic;html=1;rounded=0;exitX=0;exitY=0.5;exitDx=0;exitDy=0;entryX=0.5;entryY=1;entryDx=0;entryDy=0;" parent="1" source="Hvkr-rmVp1VkrezowsIa-18" target="Hvkr-rmVp1VkrezowsIa-10" edge="1">
          <mxGeometry width="50" height="50" relative="1" as="geometry">
            <mxPoint x="390" y="600" as="sourcePoint" />
            <mxPoint x="440" y="550" as="targetPoint" />
            <Array as="points">
              <mxPoint x="130" y="630" />
            </Array>
          </mxGeometry>
        </mxCell>
        <mxCell id="Hvkr-rmVp1VkrezowsIa-21" value="如果有不一样的数据&lt;br&gt;就调用删除 Cache" style="edgeLabel;html=1;align=center;verticalAlign=middle;resizable=0;points=[];" parent="Hvkr-rmVp1VkrezowsIa-20" vertex="1" connectable="0">
          <mxGeometry x="-0.2214" relative="1" as="geometry">
            <mxPoint x="-2" as="offset" />
          </mxGeometry>
        </mxCell>
        <mxCell id="Hvkr-rmVp1VkrezowsIa-24" value="" style="endArrow=classic;html=1;rounded=0;exitX=0.5;exitY=1;exitDx=0;exitDy=0;entryX=0.5;entryY=0;entryDx=0;entryDy=0;" parent="1" source="Hvkr-rmVp1VkrezowsIa-9" target="Hvkr-rmVp1VkrezowsIa-18" edge="1">
          <mxGeometry width="50" height="50" relative="1" as="geometry">
            <mxPoint x="390" y="600" as="sourcePoint" />
            <mxPoint x="440" y="550" as="targetPoint" />
          </mxGeometry>
        </mxCell>
        <mxCell id="Hvkr-rmVp1VkrezowsIa-25" value="item" style="rounded=0;whiteSpace=wrap;html=1;" parent="1" vertex="1">
          <mxGeometry x="190" y="100" width="120" height="60" as="geometry" />
        </mxCell>
        <mxCell id="Hvkr-rmVp1VkrezowsIa-26" value="seller" style="rounded=0;whiteSpace=wrap;html=1;" parent="1" vertex="1">
          <mxGeometry x="430" y="100" width="120" height="60" as="geometry" />
        </mxCell>
        <mxCell id="Hvkr-rmVp1VkrezowsIa-27" value="" style="endArrow=classic;html=1;rounded=0;exitX=0.5;exitY=1;exitDx=0;exitDy=0;entryX=0.217;entryY=-0.011;entryDx=0;entryDy=0;entryPerimeter=0;" parent="1" source="Hvkr-rmVp1VkrezowsIa-25" target="Hvkr-rmVp1VkrezowsIa-3" edge="1">
          <mxGeometry width="50" height="50" relative="1" as="geometry">
            <mxPoint x="390" y="400" as="sourcePoint" />
            <mxPoint x="440" y="350" as="targetPoint" />
          </mxGeometry>
        </mxCell>
        <mxCell id="Hvkr-rmVp1VkrezowsIa-28" value="" style="endArrow=classic;html=1;rounded=0;exitX=0.5;exitY=1;exitDx=0;exitDy=0;entryX=0.805;entryY=-0.011;entryDx=0;entryDy=0;entryPerimeter=0;" parent="1" source="Hvkr-rmVp1VkrezowsIa-26" target="Hvkr-rmVp1VkrezowsIa-3" edge="1">
          <mxGeometry width="50" height="50" relative="1" as="geometry">
            <mxPoint x="390" y="400" as="sourcePoint" />
            <mxPoint x="440" y="350" as="targetPoint" />
          </mxGeometry>
        </mxCell>
      </root>
    </mxGraphModel>
  </diagram>
</mxfile>
